# Blender 4.0.1
# www.blender.org
mtllib test.mtl
o Cube
v 0.895677 1.556444 -2.309074
v -0.468073 -0.618498 -1.896991
v 2.315292 1.018498 -0.450229
v 0.951543 -1.156444 -0.038145
v -0.451543 2.656444 -0.961855
v -1.815292 0.481502 -0.549771
v 0.968073 2.118498 0.896991
v -0.395677 -0.056444 1.309074
v -1.419923 -0.232142 -1.368007
v 1.919923 1.732142 0.368007
v 0.283517 -0.877639 0.862479
v 0.216483 2.377639 -1.862479
vn 0.3696 0.9291 -0.0134
vn 0.4474 -0.1124 0.8872
vn -0.6124 0.5000 0.6124
vn -0.3696 -0.9291 0.0134
vn 0.6124 -0.5000 -0.6124
vn -0.4474 0.1124 -0.8872
vn -0.7084 0.3255 -0.6262
vn -0.6513 -0.6991 0.2951
vn 0.7084 -0.3255 0.6262
vn 0.6513 0.6991 -0.2951
vt 0.875000 0.500000
vt 0.750000 0.750000
vt 0.750000 0.500000
vt 0.625000 0.875000
vt 0.375000 1.000000
vt 0.375000 0.875000
vt 0.625000 0.000000
vt 0.375000 0.250000
vt 0.375000 0.000000
vt 0.375000 0.500000
vt 0.250000 0.750000
vt 0.250000 0.500000
vt 0.625000 0.500000
vt 0.375000 0.750000
vt 0.625000 0.375000
vt 0.375000 0.375000
vt 0.625000 0.250000
vt 0.125000 0.500000
vt 0.125000 0.750000
vt 0.625000 0.750000
vt 0.875000 0.750000
vt 0.625000 1.000000
s 0
usemtl Material
f 5/1/1 10/2/1 12/3/1
f 10/4/2 8/5/2 11/6/2
f 7/7/3 6/8/3 8/9/3
f 2/10/4 11/11/4 9/12/4
f 1/13/5 4/14/5 2/10/5
f 12/15/6 2/10/6 9/16/6
f 5/17/7 9/16/7 6/8/7
f 6/18/8 11/11/8 8/19/8
f 3/20/9 11/6/9 4/14/9
f 12/3/10 3/20/10 1/13/10
f 5/1/1 7/21/1 10/2/1
f 10/4/2 7/22/2 8/5/2
f 7/7/3 5/17/3 6/8/3
f 2/10/4 4/14/4 11/11/4
f 1/13/5 3/20/5 4/14/5
f 12/15/6 1/13/6 2/10/6
f 5/17/7 12/15/7 9/16/7
f 6/18/8 9/12/8 11/11/8
f 3/20/9 10/4/9 11/6/9
f 12/3/10 10/2/10 3/20/10
